<?xml version="1.0" encoding="UTF-8"?>
<svg version="1.1" xmlns="http://www.w3.org/2000/svg" width="1563" height="1250">
<path d="M0 0 C10.23 0 20.46 0 31 0 C31 31.68 31 63.36 31 96 C33.31 93.36 35.62 90.72 38 88 C51.90464494 75.86947244 68.71474152 73.00519887 86.52001953 73.8046875 C102.75628056 75.08338496 116.00475469 83.03882231 126.74609375 94.93359375 C140.3860871 111.9747283 142.6892491 132.93798387 141 154 C139.10681077 169.42529547 131.97818397 182.17977551 121 193 C120.44828125 193.56203125 119.8965625 194.1240625 119.328125 194.703125 C107.64160795 205.69539351 91.68811988 210.1077675 76 210.375 C60.98345156 209.88446997 47.36600537 204.83078344 36.890625 193.7734375 C35.22081715 191.88321502 33.60454016 189.94593169 32 188 C31.67 194.27 31.34 200.54 31 207 C20.77 207 10.54 207 0 207 C0 138.69 0 70.38 0 0 Z M42 114 C33.61957273 125.33610484 32.84737298 137.35419319 34 151 C35.83393034 160.98229146 40.89099853 170.01324584 48.875 176.375 C50.22669483 177.28558831 51.60222574 178.16186092 53 179 C53.66515625 179.40089844 54.3303125 179.80179688 55.015625 180.21484375 C63.35625829 184.55506218 73.96087595 185.25869788 82.984375 182.71875 C92.31235885 179.39249219 99.18909054 173.79235177 104 165 C109.90710326 150.84404898 110.42405478 136.34367867 105.4375 121.75 C101.51615926 112.96677554 94.94300512 106.76809088 86.26171875 102.83984375 C70.43248998 96.96197814 53.0812027 101.42667496 42 114 Z " fill="#FFFFFF" transform="translate(533,530)"/>
<path d="M0 0 C12.56330762 10.51250707 18.78295926 24.82073716 21.16015625 40.8828125 C22.57966442 64.1862418 20.81775162 85.10598633 5.23828125 103.62890625 C-6.16435954 115.99605613 -20.22335365 123.163187 -37.11328125 124.20703125 C-51.88262 124.74917249 -65.32754022 122.0698753 -77.83984375 113.8828125 C-80.80984375 110.9128125 -83.77984375 107.9428125 -86.83984375 104.8828125 C-87.16984375 132.6028125 -87.49984375 160.3228125 -87.83984375 188.8828125 C-97.73984375 188.8828125 -107.63984375 188.8828125 -117.83984375 188.8828125 C-117.83984375 123.5428125 -117.83984375 58.2028125 -117.83984375 -9.1171875 C-107.93984375 -9.1171875 -98.03984375 -9.1171875 -87.83984375 -9.1171875 C-87.50984375 -2.1871875 -87.17984375 4.7428125 -86.83984375 11.8828125 C-85.51984375 9.9028125 -84.19984375 7.9228125 -82.83984375 5.8828125 C-62.4188665 -17.84155813 -24.2150129 -18.05300824 0 0 Z M-76.8125 27.03515625 C-85.25362693 38.09285331 -86.9823012 50.41309808 -85.83984375 63.8828125 C-84.13671602 74.28455955 -78.22131181 84.43679108 -69.83984375 90.8828125 C-59.31691758 97.14452282 -47.81048384 98.88774483 -35.78125 96.19921875 C-27.48347905 93.07946399 -20.05094015 87.80869751 -15.83984375 79.8828125 C-9.96346869 66.08524269 -8.40854942 51.11094678 -13.83984375 36.8828125 C-17.83190936 27.10736978 -23.41595919 21.57290652 -32.83984375 16.8828125 C-47.92569682 11.35133304 -65.86437355 15.08977472 -76.8125 27.03515625 Z " fill="#FFFFFF" transform="translate(996.83984375,616.1171875)"/>
<path d="M0 0 C3.55660505 2.79834408 6.82577333 5.77736465 10 9 C10.33 9.33 10.66 9.66 11 10 C11.66 4.39 12.32 -1.22 13 -7 C22.9 -7 32.8 -7 43 -7 C43 35.9 43 78.8 43 123 C33.1 123 23.2 123 13 123 C12.67 116.4 12.34 109.8 12 103 C10.02 105.64 8.04 108.28 6 111 C3.18359375 113.42578125 3.18359375 113.42578125 0.4375 115.3125 C-0.47128906 115.94800781 -1.38007812 116.58351563 -2.31640625 117.23828125 C-16.38052371 126.47105705 -31.38764288 127.69434437 -47.78149414 124.61889648 C-65.24740272 120.78532154 -79.44988031 109.90196895 -89 95 C-99.40388305 76.21593185 -100.76222766 53.46743265 -95 33 C-92.4023135 25.26221044 -88.88914852 18.52308676 -84 12 C-83.58492187 11.40832031 -83.16984375 10.81664062 -82.7421875 10.20703125 C-63.41365056 -15.08210241 -25.11633653 -15.16239671 0 0 Z M-55 27 C-63.15036535 37.90541843 -66.28039176 50.50397874 -65 64 C-63.02659819 76.29801127 -59.22865282 85.44620296 -50 94 C-47.44310099 95.79033363 -44.94257141 96.97600765 -42 98 C-41.33613281 98.23460937 -40.67226563 98.46921875 -39.98828125 98.7109375 C-28.76020371 101.90710005 -17.04672454 99.52494986 -7 94 C0.54011371 89.13768369 5.95121322 81.21223833 8.46875 72.640625 C11.68248965 56.66644853 9.52840216 43.5064783 0.625 29.8984375 C-4.44598101 23.3580245 -12.09402548 19.13490557 -20 17 C-32.7922925 15.83829234 -45.67552719 17.20240383 -55 27 Z " fill="#FFFFFF" transform="translate(796,614)"/>
<path d="M0 0 C4.26995228 3.40907481 8.14112307 7.14112307 12 11 C14.04238092 8.95761908 13.41508455 4.76319246 13.5625 1.9375 C13.706875 -0.681875 13.85125 -3.30125 14 -6 C23.9 -6 33.8 -6 44 -6 C44 36.9 44 79.8 44 124 C34.1 124 24.2 124 14 124 C13.67 117.73 13.34 111.46 13 105 C11.741875 106.505625 10.48375 108.01125 9.1875 109.5625 C-0.54092362 120.32618623 -13.11448964 126.27637684 -27.56640625 127.15625 C-46.02669066 127.74619251 -64.39602613 121.68526975 -78 109 C-79.7796907 106.98212514 -81.44159272 105.0089217 -83.0625 102.875 C-83.4944165 102.306604 -83.92633301 101.73820801 -84.37133789 101.15258789 C-96.32009598 84.97493978 -98.63017937 64.65035543 -96.3125 45.125 C-94.40346164 33.1007098 -90.09144709 22.85843696 -83 13 C-82.2575 11.948125 -81.515 10.89625 -80.75 9.8125 C-59.87528016 -11.53664529 -25.31949761 -15.85871759 0 0 Z M-56 31 C-64.21247647 43.32721624 -64.99306525 56.71394105 -63 71 C-60.63449159 80.87875535 -55.54849307 90.24620659 -47 96 C-36.73602252 101.34016465 -26.09318291 102.24286968 -15 99 C-3.95120743 94.69695634 2.63049935 88.5152721 8 78 C13.10959237 65.59098996 11.68470322 52.11068324 7.19140625 39.78125 C2.45582898 29.17355691 -5.49494748 23.35765142 -16 19 C-30.70066543 14.09977819 -46.22354261 19.54562172 -56 31 Z " fill="#FFFFFF" transform="translate(1139,613)"/>
<path d="M0 0 C11.55 0 23.1 0 35 0 C37.57786316 5.80019212 39.92426366 11.34426555 41.88500977 17.33032227 C42.1441214 18.10882538 42.40323303 18.88732849 42.67019653 19.68942261 C43.51480992 22.23037551 44.35309048 24.77336947 45.19140625 27.31640625 C45.78340856 29.10056432 46.3758591 30.88457372 46.96873474 32.66844177 C48.5217111 37.34440765 50.06952978 42.02206325 51.6159668 46.70019531 C54.09279691 54.19009891 56.5773109 61.67745601 59.06220818 69.1646862 C59.92518769 71.76748998 60.78584062 74.37105385 61.64613342 76.9747467 C62.17883151 78.58287257 62.71157936 80.19098195 63.24438477 81.79907227 C63.4797847 82.51358047 63.71518463 83.22808868 63.9577179 83.96424866 C65.52573332 88.68888065 67.22870131 93.34762599 69 98 C69.27448975 97.16082031 69.54897949 96.32164062 69.83178711 95.45703125 C78.7895807 68.15012034 88.33234101 41.06262409 98 14 C99.65 9.38 101.3 4.76 103 0 C114.22 0 125.44 0 137 0 C136.20554628 4.76672232 135.32622186 8.1202332 133.5703125 12.5078125 C133.18471161 13.47898262 133.18471161 13.47898262 132.7913208 14.46977234 C131.90807734 16.69042834 131.01637346 18.90759604 130.125 21.125 C129.46635283 22.776695 128.80833878 24.42864258 128.15087891 26.08081055 C126.63919179 29.87742509 125.12417776 33.67269287 123.60742188 37.46728516 C120.73220696 44.66511992 117.87334808 51.8694273 115.015625 59.07421875 C113.92979822 61.8114537 112.84393083 64.54867253 111.75805664 67.28588867 C111.48208177 67.98157487 111.20610689 68.67726107 110.92176914 69.39402866 C107.74596562 77.39911401 104.56641613 85.40271072 101.38671875 93.40625 C100.4822548 95.68290698 99.57779481 97.95956552 98.67333508 100.23622417 C98.05929452 101.78185487 97.44525095 103.32748436 96.83120441 104.87311268 C93.89652928 112.26016433 90.96258173 119.64750489 88.02868652 127.03486633 C85.38795383 133.68406293 82.7470022 140.33317256 80.10601807 146.98226929 C78.83866941 150.17302285 77.57138001 153.36379995 76.30413818 156.55459595 C74.80909383 160.3189366 73.31385844 164.08320132 71.81848717 167.84741211 C71.27335112 169.21973211 70.72827473 170.59207582 70.18326759 171.96444702 C68.94772724 175.07558407 67.71119933 178.18631491 66.4727478 181.29629517 C65.421372 183.94032264 64.37403382 186.58574824 63.33023071 189.23275757 C62.78311099 190.61442014 62.2359424 191.99606336 61.6887207 193.37768555 C61.43395808 194.02681569 61.17919546 194.67594584 60.91671276 195.34474659 C59.11313261 199.88686739 59.11313261 199.88686739 58 201 C55.6243148 201.0883967 53.27791326 201.11530305 50.90234375 201.09765625 C49.83905602 201.09553383 49.83905602 201.09553383 48.75428772 201.09336853 C46.48198288 201.08775443 44.20977525 201.07519963 41.9375 201.0625 C40.40039204 201.05748681 38.86328255 201.05292359 37.32617188 201.04882812 C33.55074358 201.03778042 29.77538829 201.02050641 26 201 C26.70292859 196.10817839 28.59255644 191.83446316 30.5 187.31640625 C30.85262405 186.47305222 31.20524811 185.62969818 31.56855774 184.76078796 C32.32169333 182.95965344 33.07636225 181.15915943 33.83242798 179.35925293 C35.0066289 176.54662142 36.16040192 173.72636181 37.30932617 170.90332031 C44.36698056 153.64304237 44.36698056 153.64304237 48.9855957 146.06323242 C51.54475727 140.63743321 53.70571347 135.9894479 52.27430725 129.92591858 C50.95483586 126.43393824 49.46976627 123.069727 47.8984375 119.68359375 C47.3348558 118.4093577 46.77475643 117.13357642 46.21794128 115.85636902 C45.06235138 113.2089216 43.89506346 110.56711364 42.7204895 107.92803955 C40.03961905 101.85894681 37.61583056 95.68877092 35.17578125 89.51953125 C34.20810855 87.09341718 33.24000585 84.66747457 32.27148438 82.24169922 C31.535635 80.39426388 30.79978676 78.54682808 30.06408691 76.69933319 C27.72957514 70.8386214 25.39026028 64.97982407 23.05078125 59.12109375 C22.79379581 58.47736565 22.53681038 57.83363754 22.27203751 57.17040253 C18.76411184 48.38524359 15.23116725 39.61057058 11.66796875 30.84765625 C11.26379227 29.85314957 10.85961578 28.85864288 10.44319153 27.83399963 C8.57562714 23.24118691 6.70358755 18.65026203 4.82543945 14.06176758 C4.17520274 12.46569431 3.52505056 10.8695866 2.875 9.2734375 C2.57937668 8.55563614 2.28375336 7.83783478 1.97917175 7.09828186 C0 2.22659941 0 2.22659941 0 0 Z " fill="#FFFFFF" transform="translate(1206,607)"/>
<path d="M0 0 C12.82472124 11.01920896 19.83068044 27.16027771 22.125 43.6875 C23.12834852 62.5195799 19.88247971 80.42434973 8.125 95.6875 C7.18914062 96.90566406 7.18914062 96.90566406 6.234375 98.1484375 C-2.10378317 108.18510937 -13.25824577 115.27909326 -25.875 118.6875 C-26.69742188 118.91050781 -27.51984375 119.13351562 -28.3671875 119.36328125 C-46.78420351 123.477721 -67.78048838 120.93669499 -83.8203125 110.83203125 C-97.71884741 101.04246374 -106.72399254 89.0164022 -111.875 72.6875 C-112.12121094 71.91535156 -112.36742187 71.14320313 -112.62109375 70.34765625 C-117.20020537 52.37859066 -114.10333469 31.48380981 -104.78515625 15.6171875 C-94.7329314 0.19966472 -81.46977917 -9.3041129 -63.8125 -14.25 C-40.75436786 -18.79347431 -18.67365525 -14.37998486 0 0 Z M-66.875 16.6875 C-76.90636679 25.76831389 -81.02965851 38.00621476 -81.83203125 51.22265625 C-82.00259367 64.9761893 -77.57190424 76.73414569 -68.09375 86.77734375 C-59.10684755 94.5143073 -49.30327912 95.40497044 -37.875 94.6875 C-28.91987461 92.77256753 -22.03927834 87.02367111 -16.875 79.6875 C-9.84699102 67.25902096 -8.26268642 52.42471174 -11.875 38.6875 C-15.03099162 28.1806779 -20.74912228 19.56293296 -30.1875 13.6875 C-42.28826717 7.7739077 -56.02966686 8.61512136 -66.875 16.6875 Z " fill="#FFFFFF" transform="translate(478.875,619.3125)"/>
<path d="M0 0 C10.89 0 21.78 0 33 0 C33.0453107 19.62058034 33.08208398 39.2411177 33.10362434 58.86173725 C33.1138959 67.97384337 33.12787649 77.08591444 33.15087891 86.19799805 C33.17093996 94.14875778 33.1837463 102.09949211 33.18817699 110.05027646 C33.19076305 114.25226725 33.19675327 118.45418543 33.21146011 122.65615273 C33.39982173 178.8203275 33.39982173 178.8203275 20.625 193.625 C19.12065901 195.12180673 17.58072774 196.58410028 16 198 C15.33871094 198.59296875 14.67742187 199.1859375 13.99609375 199.796875 C1.88714966 209.67973038 -13.94188017 211.1991293 -29 210 C-40.71802241 208.6552716 -52.42114577 206.30427681 -62 199 C-63.29785156 197.28222656 -63.29785156 197.28222656 -64 195 C-63.12548828 192.06738281 -63.12548828 192.06738281 -61.5703125 188.703125 C-61.30113007 188.10949158 -61.03194763 187.51585815 -60.75460815 186.90423584 C-59.89266564 185.01239178 -59.00930097 183.1314812 -58.125 181.25 C-57.53632014 179.96810835 -56.94906286 178.68556239 -56.36328125 177.40234375 C-54.92527484 174.26047317 -53.46788948 171.12804022 -52 168 C-48.3077415 168 -47.41660445 169.28081105 -44.74609375 171.625 C-36.64650347 178.00320084 -28.00420873 178.65817163 -18 178 C-12.47216346 176.88210949 -8.31573385 174.6051859 -5 170 C-1.0459457 160.47688155 -0.41563673 151.26411623 -0.45410156 141.11206055 C-0.44534499 139.56335422 -0.43485203 138.0146569 -0.42277527 136.4659729 C-0.39514934 132.30357893 -0.39150535 128.14148357 -0.39249516 123.9790113 C-0.38934571 119.61344867 -0.36368565 115.24801658 -0.34051514 110.88252258 C-0.30010614 102.63457837 -0.27965012 94.38671292 -0.26654124 86.13868505 C-0.25061977 76.74066867 -0.21218272 67.34278534 -0.17194796 57.94484651 C-0.0897558 38.62991607 -0.03850599 19.31507035 0 0 Z " fill="#FFFFFF" transform="translate(297,530)"/>
</svg>
